<svg width="70" height="37" viewBox="0 0 70 37" fill="none" xmlns="http://www.w3.org/2000/svg">
<g clip-path="url(#clip0_1218_2202)">
<path fill-rule="evenodd" clip-rule="evenodd" d="M34.5005 36.8567C27.387 36.8567 8.87319 36.058 3.56 34.3442C2.20426 33.9353 1.85298 32.8063 1.7185 32.0835C1.07906 29.9771 0.557617 26.1406 0.557617 18.5814C0.557617 11.0222 1.07906 7.04767 1.7185 5.0225C1.85298 4.2238 2.20426 3.23017 3.56 2.68597C8.87319 0.969449 27.387 0.249267 34.5005 0.306124C41.5948 0.24656 60.051 0.969449 65.3422 2.68326C66.7199 3.23017 67.1453 4.2238 67.2605 5.01979C67.8424 7.04497 68.4434 10.922 68.4434 18.5787C68.4434 26.2354 67.8424 29.9744 67.2605 32.078C67.1453 32.7982 66.7172 33.9299 65.3422 34.3388C60.051 36.0526 41.5948 36.8513 34.5005 36.8513V36.8567Z" fill="white"/>
<path d="M34.9997 37.0004H34.997C31.421 37.0004 25.0018 36.8028 18.8241 36.3967C17.7922 36.329 16.7878 36.2559 15.8327 36.1828C10.7638 35.7821 6.19435 35.2297 3.91923 34.5123C2.36315 34.052 2.00089 32.8986 1.74017 32.0701C1.72096 32.0106 1.70449 31.9564 1.69352 31.9212V31.9131C1.36144 30.8491 1.0623 29.3546 0.848237 27.1859C0.634173 25.0308 0.502441 22.2177 0.502441 18.5031C0.502441 14.7885 0.647895 11.8942 0.870193 9.73098C1.09249 7.55149 1.38889 6.07051 1.68803 5.04439C1.80329 4.61661 1.93777 4.13469 2.24789 3.65547C2.57173 3.15459 3.06298 2.69703 3.86983 2.37755L3.911 2.36401L3.94668 2.35318C4.7206 2.10951 5.75525 1.8875 6.982 1.68445C8.18954 1.4868 9.58919 1.3054 11.1123 1.14296C18.8735 0.317183 29.8759 -0.0374926 34.9997 0.00311913H35.0436C36.0481 -0.00500322 37.2721 0.00311913 38.647 0.0247787C40.033 0.0491458 41.5643 0.08705 43.1726 0.141199C51.4991 0.422774 62.1392 1.13483 65.9923 2.36131L66.0225 2.36943L66.0472 2.38026H66.05C66.2476 2.46148 66.426 2.55354 66.5879 2.651C66.7498 2.74847 66.9062 2.85948 67.0517 2.98131C67.779 3.58507 68.1467 4.36211 68.3031 5.07688C68.5995 6.10029 68.8987 7.57044 69.121 9.71745C69.346 11.8807 69.4997 14.7316 69.4997 18.4977C69.4997 22.2638 69.3488 25.0308 69.121 27.1832C68.8932 29.3437 68.5913 30.8328 68.2949 31.8915L68.2894 31.9131L68.2784 31.9402C68.2428 32.035 68.2181 32.1053 68.1906 32.1784C67.8613 33.0854 67.51 34.0547 65.9978 34.5014H65.9869V34.5041C65.2157 34.7478 64.1948 34.9725 62.99 35.1756C61.7934 35.3787 60.402 35.5628 58.8843 35.7306C51.1286 36.5889 40.118 36.995 35.0052 36.995L34.9997 37.0004ZM34.997 35.8552H34.9997C40.0933 35.8552 51.0518 35.4518 58.7526 34.5989C60.2401 34.4338 61.6095 34.2523 62.7896 34.052C63.956 33.8544 64.9275 33.6432 65.6356 33.4185H65.6383L65.6548 33.413C66.6153 33.1315 66.8651 32.4438 67.1011 31.7967C67.1313 31.7155 67.1587 31.6342 67.1834 31.572C67.4633 30.5675 67.7515 29.1461 67.9683 27.0722C68.1879 24.9712 68.3361 22.1988 68.3361 18.5031C68.3361 14.8075 68.1879 11.9511 67.9683 9.83928C67.7488 7.73559 67.4606 6.32231 67.1807 5.35845L67.1697 5.32055C67.0599 4.81426 66.8074 4.27277 66.3107 3.86123C66.2174 3.78543 66.1104 3.70962 65.9896 3.63381C65.8743 3.56341 65.7536 3.50114 65.6246 3.44699C61.8675 2.26113 51.3783 1.56532 43.1451 1.28645C41.5232 1.2323 40 1.1944 38.636 1.17003C37.2666 1.14837 36.0508 1.14025 35.0573 1.14837H35.0079H34.9997C29.9116 1.10776 18.9696 1.45973 11.2386 2.28279C9.74013 2.44253 8.36518 2.61852 7.17685 2.81345C6.00773 3.00568 5.02798 3.21686 4.30071 3.44429C3.75457 3.66088 3.43347 3.956 3.22764 4.27006C3.01358 4.60308 2.9038 4.99566 2.81049 5.34762V5.35845C2.52233 6.33584 2.23965 7.75184 2.02559 9.8447C1.81153 11.9538 1.66882 14.756 1.66882 18.5031C1.66882 22.2502 1.7978 24.9793 2.00638 27.0776C2.21221 29.1542 2.49214 30.5729 2.80226 31.572C2.82421 31.637 2.83794 31.6857 2.8544 31.7344C3.03828 32.3165 3.29351 33.1288 4.2568 33.4157L4.26777 33.4212C6.4386 34.1089 10.9257 34.6476 15.9315 35.0429C16.936 35.1214 17.9322 35.1945 18.9092 35.2568C25.0841 35.6629 31.4676 35.8579 35.0052 35.8579L34.997 35.8552Z" fill="#EF3E33"/>
<path d="M35 34.9127H34.9479C33.8034 34.9208 32.4998 34.9127 31.092 34.8829C29.6704 34.8559 28.15 34.8125 26.5884 34.7557C18.5006 34.4579 8.97201 33.7593 5.27803 32.8307L5.22588 32.8172L5.16825 32.7901C4.76482 32.5978 4.47117 32.4408 4.21594 32.208C3.9415 31.9589 3.75762 31.6611 3.60942 31.2062L3.59845 31.171C3.35145 30.2072 3.07975 28.7912 2.87118 26.7254C2.6626 24.6731 2.5144 21.9901 2.5144 18.4947C2.5144 14.9994 2.6626 12.2487 2.87118 10.2072C3.07975 8.16042 3.35145 6.76066 3.59845 5.76703L3.60394 5.74537C3.75213 5.23096 3.9415 4.90606 4.22966 4.65698C4.50685 4.41601 4.8252 4.29418 5.25882 4.16693L5.28077 4.15881L5.29998 4.15339C6.03823 3.96928 6.99328 3.7933 8.11575 3.62544C9.21351 3.46028 10.4952 3.30325 11.903 3.15434C19.0303 2.39896 29.1572 1.91433 35 1.98202H35.0247C36.1527 1.96848 37.4398 1.9766 38.8367 2.00368C40.2473 2.03075 41.754 2.07678 43.3046 2.13905C51.343 2.46124 60.8716 3.23015 64.5656 4.15881C65.0513 4.28606 65.4053 4.40789 65.6963 4.64615C66.0146 4.90877 66.1957 5.25532 66.289 5.79952C66.5141 6.78774 66.7885 8.17666 67.0053 10.2018C67.2221 12.2432 67.3841 14.9263 67.3841 18.492C67.3841 22.0578 67.2221 24.6731 67.0053 26.7254C66.7858 28.7831 66.5113 30.1963 66.2836 31.1575C66.1875 31.6367 66.0119 31.9508 65.7072 32.2161C65.4355 32.4516 65.1035 32.606 64.6479 32.8009L64.604 32.8199L64.5628 32.8307L64.5271 32.8388C63.7889 33.0229 62.8283 33.1962 61.7059 33.3586C60.6054 33.5184 59.3237 33.67 57.9213 33.8108C50.8133 34.5283 40.7441 34.9506 34.9945 34.91L35 34.9127ZM34.9424 33.7729H34.9973H35.0028C40.7139 33.8135 50.7282 33.3938 57.8088 32.6791C59.17 32.541 60.4325 32.3921 61.5412 32.2323C62.6225 32.0753 63.5391 31.9102 64.239 31.7369C64.571 31.5961 64.8071 31.4878 64.9443 31.3687C65.0458 31.2793 65.1117 31.1494 65.1529 30.9328L65.1584 30.9111C65.3779 29.9797 65.6441 28.6125 65.8554 26.6198C66.0695 24.619 66.2259 21.9792 66.2259 18.5029C66.2259 15.0265 66.0667 12.3218 65.8554 10.3291C65.6441 8.34181 65.3752 6.9935 65.1584 6.03507L65.1501 6.00258C65.1062 5.74808 65.0486 5.61 64.9553 5.53419C64.8345 5.43401 64.6067 5.36362 64.2829 5.27969C60.6548 4.36999 51.2305 3.6119 43.2607 3.29513C41.6936 3.23286 40.1952 3.18683 38.8202 3.15976C37.4316 3.13268 36.1527 3.12456 35.0384 3.1381H35.0055H34.9918C29.1956 3.07041 19.1208 3.55234 12.0238 4.30501C10.6598 4.4485 9.39739 4.60553 8.2859 4.77069C7.19637 4.93314 6.27699 5.10371 5.57991 5.27698L5.5607 5.2824C5.289 5.36362 5.09964 5.43131 4.98986 5.52877C4.88558 5.62083 4.80324 5.78057 4.71817 6.07026C4.48215 7.02329 4.22417 8.36347 4.02383 10.3318C3.82074 12.3218 3.67803 14.9615 3.67803 18.5083C3.67803 22.055 3.82074 24.6271 4.02383 26.6252C4.22417 28.6071 4.48489 29.9689 4.72366 30.8949C4.80324 31.1304 4.88832 31.2766 5.00359 31.3795C5.13257 31.4959 5.33292 31.6042 5.61559 31.7396C9.27389 32.6439 18.6488 33.3262 26.6295 33.6186C28.2076 33.6754 29.717 33.7187 31.1112 33.7458C32.5163 33.7729 33.8117 33.781 34.9451 33.7756L34.9424 33.7729Z" fill="#EF3E33"/>
<path fill-rule="evenodd" clip-rule="evenodd" d="M6.30444 17.7228H12.4272C14.115 17.7228 15.4927 19.082 15.4927 20.747C15.4927 22.4121 14.115 23.7713 12.4272 23.7713C10.7394 23.7713 9.36172 22.3959 9.36172 20.7308V18.822H6.30444V20.7389C6.30444 24.0664 9.05983 26.7874 12.4272 26.7874C15.7946 26.7874 18.55 24.0691 18.55 20.747C18.55 17.425 15.7946 14.7067 12.4272 14.7067H9.36172V10.1582H6.30444V17.7228ZM53.898 14.7067C57.2709 14.7067 60.0181 17.4169 60.0181 20.747C60.0181 24.0772 57.2709 26.7874 53.898 26.7874C50.5252 26.7874 47.7752 24.0772 47.7752 20.747C47.7752 17.4169 50.5224 14.7067 53.898 14.7067ZM53.898 17.7228C55.5941 17.7228 56.9635 19.082 56.9635 20.747C56.9635 22.4121 55.5941 23.7713 53.898 23.7713C52.202 23.7713 50.8325 22.4202 50.8325 20.747C50.8325 19.0738 52.2102 17.7228 53.898 17.7228ZM22.0436 21.5566H31.0535C31.0892 21.2777 31.1057 20.9907 31.1057 20.7281C31.1057 17.3979 28.3503 14.7067 24.9857 14.7067C21.621 14.7067 18.8629 17.3898 18.8629 20.72C18.8629 24.0501 21.6265 26.7846 24.9857 26.7846C27.8124 26.7846 30.2138 24.8597 30.9026 22.3065H27.6175C27.0879 23.1702 26.0807 23.7713 24.9664 23.7713C23.5887 23.7713 22.3867 22.8128 22.0327 21.5593H31.0426H22.0409L22.0436 21.5566ZM27.8124 19.5801C27.3349 18.4917 26.2481 17.7228 24.9692 17.7228C23.6903 17.7228 22.6282 18.489 22.1589 19.5801H27.8124ZM34.6405 19.4583C34.6405 18.5513 35.3925 17.8122 36.3091 17.8122C37.2257 17.8122 37.9695 18.554 37.9695 19.4068V26.5626H41.024V19.3554C41.024 18.4484 41.776 17.7093 42.6926 17.7093C43.6092 17.7093 44.353 18.4511 44.353 19.3554V26.5626H47.4102V19.3473C47.4102 16.7752 45.2888 14.6851 42.6926 14.6851C41.5893 14.6851 40.5547 15.0695 39.7506 15.722C39.07 15.0858 38.1149 14.6851 37.083 14.6851C36.1719 14.6851 35.3074 14.9991 34.635 15.5298V14.9883H31.5777V26.5599H34.635V19.4583H34.6405ZM63.509 26.5599H60.4517V10.1582H63.509V26.5599Z" fill="#0097D7"/>
</g>
<defs>
<clipPath id="clip0_1218_2202">
<rect width="69" height="37" fill="white" transform="translate(0.5)"/>
</clipPath>
</defs>
</svg>
